<?xml version="1.0" encoding="UTF-8" ?>
<!DOCTYPE svg PUBLIC "-//W3C//DTD SVG 1.1//EN" "http://www.w3.org/Graphics/SVG/1.1/DTD/svg11.dtd">
<svg width="907pt" height="522pt" viewBox="0 0 907 522" version="1.1" xmlns="http://www.w3.org/2000/svg">
<g id="#ffffffff">
<path fill="#ffffff" opacity="1.00" d=" M 720.59 13.77 C 722.43 8.56 726.67 2.47 733.01 3.58 C 740.77 5.17 747.51 9.69 754.09 13.91 C 742.56 27.61 737.22 45.35 735.33 62.90 C 734.51 69.64 734.60 76.45 734.99 83.22 C 724.23 75.56 718.77 62.57 717.09 49.83 C 715.49 37.77 716.59 25.27 720.59 13.77 Z" />
<path fill="#ffffff" opacity="1.00" d=" M 599.38 47.54 C 603.48 45.97 608.35 47.56 611.03 50.97 C 614.88 55.72 616.36 62.00 616.44 68.01 C 616.45 76.04 614.86 84.43 609.97 90.98 C 607.34 94.47 603.57 97.68 599.01 97.85 C 594.60 97.97 590.92 94.72 588.98 91.02 C 584.41 82.55 584.90 72.31 587.30 63.26 C 589.25 56.89 593.02 50.31 599.38 47.54 Z" />
<path fill="#ffffff" opacity="1.00" d=" M 774.90 74.88 C 779.84 70.52 786.32 68.53 792.65 67.18 C 794.15 68.91 795.61 70.68 796.96 72.55 C 790.24 75.43 785.71 82.06 785.21 89.32 C 783.35 107.37 790.60 124.58 795.65 141.54 C 800.93 159.30 807.41 177.21 807.25 195.97 C 805.72 212.72 802.07 229.49 794.81 244.74 C 790.45 253.78 784.44 262.30 776.14 268.12 C 770.31 272.27 763.31 274.13 756.77 276.82 C 714.70 292.54 671.75 305.76 628.73 318.62 C 597.32 327.86 565.85 336.94 534.24 345.50 C 537.96 336.09 541.78 326.70 545.33 317.22 C 545.95 314.49 549.30 314.97 551.37 314.17 C 612.68 299.16 673.92 283.73 734.27 265.20 C 742.89 262.45 751.72 260.10 759.70 255.72 C 773.91 248.19 785.76 236.55 794.18 222.91 C 785.84 228.35 776.09 231.91 766.02 231.53 C 752.57 231.74 739.79 223.58 733.77 211.65 C 725.54 226.25 713.26 239.56 696.97 244.92 C 686.04 248.36 673.44 249.49 662.95 244.05 C 652.52 238.36 645.99 227.78 641.86 216.97 C 638.46 231.10 634.14 246.00 623.45 256.45 C 618.91 261.04 612.09 261.75 605.97 261.66 C 598.07 261.63 590.62 257.26 585.99 251.00 C 581.68 245.13 579.43 238.02 578.34 230.89 C 576.14 218.06 575.93 204.94 577.45 192.02 C 579.20 177.53 580.48 162.99 582.22 148.50 C 583.69 139.27 584.69 128.48 578.28 120.78 C 578.77 118.92 578.82 115.76 581.22 115.46 C 592.46 113.33 603.73 111.26 614.98 109.12 C 611.85 134.39 608.48 159.63 605.30 184.90 C 604.27 194.38 603.84 204.38 607.52 213.38 C 608.67 216.30 610.62 219.49 614.06 219.84 C 620.02 220.40 625.89 217.06 629.12 212.13 C 633.55 205.55 636.72 197.96 637.76 190.08 C 637.53 168.26 642.31 146.15 653.05 127.05 C 660.10 114.95 669.36 103.16 682.59 97.53 C 688.32 95.20 694.60 93.21 700.85 94.29 C 707.71 95.59 712.72 101.31 715.78 107.26 C 720.61 117.01 721.34 128.29 720.11 138.95 C 718.62 151.58 713.38 164.19 703.70 172.72 C 696.76 178.70 687.23 181.40 678.18 180.61 C 672.10 179.93 667.16 175.46 665.06 169.84 C 664.28 179.38 664.79 189.66 670.09 197.95 C 673.69 203.53 680.55 206.19 687.02 205.85 C 702.52 204.47 718.29 198.62 728.66 186.56 C 729.83 176.92 732.50 166.70 739.86 159.85 C 741.84 157.75 744.72 156.78 746.73 154.77 C 750.22 149.20 752.44 142.95 754.61 136.78 C 759.37 123.10 762.78 108.98 765.53 94.77 C 766.25 87.34 769.26 79.92 774.90 74.88 M 693.29 110.15 C 688.68 111.18 684.93 114.52 682.46 118.44 C 675.56 129.19 671.75 141.62 669.35 154.09 C 668.24 157.92 670.32 162.39 674.00 163.96 C 676.93 165.27 680.29 164.85 683.34 164.21 C 688.35 162.88 691.64 158.41 694.29 154.25 C 698.69 146.73 701.29 138.24 702.67 129.67 C 703.34 123.92 703.83 117.52 700.69 112.38 C 699.20 109.85 695.90 109.41 693.29 110.15 M 757.92 152.82 C 762.10 153.01 766.02 154.88 768.83 157.98 C 767.59 160.90 763.52 160.29 762.05 163.06 C 758.66 168.40 758.10 175.30 759.81 181.32 C 761.08 185.19 763.64 189.45 768.04 190.10 C 772.69 190.70 778.57 189.30 780.61 184.60 C 782.25 179.95 781.72 174.87 781.11 170.07 C 778.50 153.59 771.63 138.19 768.32 121.86 C 765.10 132.25 762.55 142.91 757.92 152.82 Z" />
<path fill="#ffffff" opacity="1.00" d=" M 561.74 115.82 C 564.60 114.36 567.00 112.19 569.15 109.82 C 570.86 110.91 572.55 112.05 574.25 113.18 C 568.55 123.63 566.22 135.42 563.94 146.98 C 555.68 192.40 552.22 238.61 542.49 283.78 C 538.17 304.20 532.91 324.68 523.42 343.39 C 518.63 352.45 512.87 361.33 504.77 367.78 C 496.34 374.31 484.80 377.27 474.39 374.55 C 462.69 370.49 455.65 358.66 453.58 346.96 C 454.49 345.41 455.94 344.30 457.15 343.00 C 463.41 346.92 471.26 345.71 478.03 343.97 C 488.67 340.77 495.71 331.38 501.24 322.29 C 511.58 304.48 517.12 284.39 521.59 264.42 C 522.80 258.57 524.23 252.75 524.95 246.82 C 519.79 258.05 514.65 269.86 505.33 278.34 C 499.22 284.10 490.12 285.05 482.19 283.60 C 476.39 282.49 471.43 278.72 468.07 273.97 C 462.17 266.04 459.72 256.18 458.65 246.52 C 456.26 249.16 454.05 252.16 450.72 253.69 C 446.50 255.82 441.56 255.83 437.08 254.61 C 431.93 270.87 423.11 286.95 408.58 296.56 C 398.81 303.27 386.15 305.18 374.70 302.41 C 367.28 300.58 361.10 295.38 356.90 289.13 C 352.43 282.44 350.10 274.58 348.79 266.72 C 346.50 269.44 344.31 272.45 341.02 274.03 C 336.75 276.30 331.68 276.39 327.10 275.10 C 321.88 291.47 312.99 307.69 298.25 317.27 C 288.61 323.78 276.23 325.60 264.98 322.99 C 256.11 320.86 249.02 314.07 244.82 306.18 C 239.31 295.72 237.70 283.68 237.76 272.00 C 237.83 252.12 242.33 232.36 250.22 214.14 C 256.02 200.94 263.86 188.34 274.81 178.80 C 282.72 171.76 293.68 167.52 304.30 169.44 C 313.21 171.15 319.83 178.35 324.16 185.90 C 330.53 197.49 332.88 210.84 333.56 223.92 C 333.99 232.89 333.59 241.91 332.35 250.81 C 331.72 253.71 333.67 256.46 335.64 258.39 C 338.45 260.06 342.27 258.47 343.78 255.71 C 346.14 251.52 348.00 246.86 348.14 241.99 C 349.36 225.23 353.65 208.73 360.35 193.33 C 366.38 179.73 374.58 166.73 386.15 157.17 C 393.82 150.88 404.06 147.19 413.99 148.89 C 421.67 150.18 427.75 155.80 432.04 161.99 C 439.23 172.76 442.05 185.80 443.23 198.52 C 444.14 209.20 443.78 219.97 442.33 230.59 C 441.80 233.34 443.69 235.83 445.44 237.73 C 448.33 239.80 452.44 237.86 453.95 234.96 C 457.18 229.22 458.63 222.68 459.54 216.22 C 462.22 198.54 467.09 181.09 475.02 165.02 C 480.22 154.79 486.62 144.94 495.15 137.16 C 502.25 130.98 511.75 126.15 521.39 127.70 C 529.35 129.35 533.20 137.34 536.25 144.05 C 536.74 137.15 536.81 130.22 537.15 123.30 C 545.74 122.48 554.11 119.82 561.74 115.82 M 519.43 142.53 C 514.74 143.85 510.81 147.06 507.74 150.76 C 501.44 158.42 497.10 167.50 493.88 176.83 C 489.50 189.74 486.62 203.30 486.68 216.98 C 486.83 224.17 487.75 231.89 492.16 237.84 C 495.20 241.79 500.91 242.07 505.25 240.35 C 511.77 237.89 515.70 231.68 518.83 225.81 C 526.70 210.42 529.92 193.07 531.15 175.96 C 531.56 166.03 531.86 155.54 527.68 146.29 C 526.40 143.09 522.73 141.11 519.43 142.53 M 400.04 166.04 C 394.59 169.99 390.77 175.77 387.60 181.62 C 380.26 195.90 376.72 211.99 376.23 227.99 C 376.15 237.50 376.97 247.63 382.15 255.88 C 385.28 260.73 391.45 262.24 396.89 261.54 C 407.15 261.04 415.51 253.36 420.16 244.70 C 415.91 244.67 412.54 241.56 411.23 237.70 C 407.10 226.76 409.02 214.48 412.91 203.76 C 415.60 197.58 419.60 190.29 426.99 189.29 C 425.40 181.26 422.97 172.85 417.30 166.70 C 412.84 161.88 405.05 162.38 400.04 166.04 M 290.35 186.33 C 284.63 190.31 280.73 196.35 277.46 202.38 C 270.30 216.46 266.80 232.25 266.24 247.98 C 266.13 257.74 266.87 268.21 272.33 276.62 C 276.10 282.23 283.59 282.86 289.68 281.68 C 298.83 280.18 305.74 272.96 310.24 265.28 C 306.19 265.12 302.78 262.40 301.41 258.64 C 297.07 247.78 298.95 235.45 302.73 224.71 C 305.42 218.32 309.49 210.81 317.08 209.72 C 315.23 201.65 312.97 193.05 307.04 186.94 C 302.63 182.46 295.25 182.93 290.35 186.33 Z" />
<path fill="#ffffff" opacity="1.00" d=" M 82.20 144.23 C 99.27 133.67 119.13 128.45 139.02 126.91 C 156.15 125.44 174.00 126.78 189.72 134.26 C 202.28 139.83 212.91 149.81 218.67 162.34 C 226.60 179.68 225.51 200.66 216.30 217.30 C 210.30 228.71 200.42 237.79 188.77 243.22 C 195.54 246.18 202.40 249.17 208.27 253.73 C 219.78 262.46 228.15 275.52 230.40 289.88 C 233.55 308.61 228.62 328.75 216.63 343.58 C 208.73 353.21 197.92 360.87 185.54 363.31 C 173.96 365.72 161.14 365.59 150.80 359.19 C 136.02 350.67 130.47 331.34 134.54 315.43 C 136.11 309.58 139.05 303.86 143.96 300.15 C 144.53 300.62 145.68 301.56 146.25 302.03 C 145.33 307.23 144.89 312.76 147.21 317.69 C 151.06 327.39 161.92 332.79 172.02 332.15 C 180.78 331.49 189.83 328.54 196.00 322.02 C 201.68 316.22 204.14 307.95 204.27 299.97 C 204.40 291.26 202.93 282.43 199.48 274.41 C 195.25 264.88 186.98 257.44 177.34 253.62 C 169.71 250.62 161.57 249.24 153.50 248.01 C 154.11 243.19 155.07 238.42 155.84 233.62 C 164.01 234.44 172.65 233.23 179.53 228.49 C 192.35 220.39 198.17 204.67 198.19 190.02 C 198.40 169.87 186.46 148.96 167.02 141.95 C 163.38 145.70 160.27 150.54 158.82 155.72 C 154.25 171.22 152.60 187.36 150.08 203.28 C 144.29 240.93 139.54 278.96 128.43 315.52 C 122.42 335.28 114.95 354.94 102.78 371.81 C 94.14 383.49 83.05 394.24 68.99 398.92 C 64.77 400.37 60.36 401.14 55.94 401.64 C 55.11 400.39 54.27 399.15 53.44 397.91 C 56.13 389.90 55.72 381.14 52.74 373.27 C 48.64 361.87 40.72 352.12 31.31 344.62 C 32.15 342.82 33.02 341.04 33.90 339.28 C 43.38 341.84 53.37 342.37 63.11 341.36 C 73.47 340.14 82.33 333.68 88.77 325.77 C 98.55 313.97 104.29 299.45 108.96 285.01 C 116.89 258.53 122.33 231.39 128.21 204.40 C 130.41 194.36 133.26 184.47 136.65 174.76 C 139.99 164.70 144.00 154.32 151.90 146.89 C 154.81 143.93 158.55 142.07 162.19 140.19 C 146.08 136.78 128.84 138.25 113.64 144.64 C 94.62 153.28 79.93 170.19 72.56 189.60 C 68.85 199.63 66.59 210.28 66.48 221.00 C 66.51 228.84 67.62 237.17 72.24 243.74 C 74.90 247.56 80.24 249.45 84.59 247.60 C 88.00 244.76 88.11 239.93 88.23 235.85 C 92.19 235.52 96.00 237.94 97.28 241.72 C 102.23 254.36 96.35 271.13 83.58 276.57 C 72.98 280.32 60.24 278.86 51.55 271.40 C 38.83 261.03 34.38 243.83 34.19 228.04 C 33.60 194.12 53.24 161.40 82.20 144.23 Z" />
<path fill="#ffffff" opacity="1.00" d=" M 209.58 391.40 C 287.37 374.65 365.09 357.61 442.65 339.87 C 440.97 350.30 438.31 360.56 436.09 370.89 C 435.98 372.48 434.13 372.48 433.01 372.89 C 365.01 390.80 296.86 408.13 228.77 425.66 C 203.22 431.87 177.99 439.56 153.72 449.76 C 140.38 454.95 127.99 462.72 117.77 472.77 C 109.99 480.49 104.67 490.33 101.32 500.69 C 99.64 500.48 97.97 500.30 96.29 500.10 C 96.05 487.90 92.78 475.56 85.19 465.83 C 79.11 457.05 70.30 450.75 61.04 445.68 C 61.34 443.99 61.36 442.01 62.89 440.89 C 77.30 427.46 96.21 420.47 114.71 414.73 C 145.66 404.41 177.77 398.36 209.58 391.40 Z" />
<path fill="#ffffff" opacity="1.00" d=" M 632.95 347.30 C 639.19 347.11 645.44 347.10 651.68 347.24 C 658.68 347.35 664.06 356.25 660.16 362.24 C 658.67 360.66 657.27 358.88 655.22 358.02 C 657.46 360.43 660.64 362.09 661.66 365.43 C 664.46 370.25 662.88 377.11 657.99 379.93 C 655.04 381.91 651.36 381.49 648.00 381.52 C 642.92 381.37 637.83 381.77 632.77 381.24 C 632.52 369.94 632.27 358.57 632.95 347.30 M 641.91 349.39 C 644.78 351.03 647.60 354.52 651.25 352.99 C 650.43 352.87 648.78 352.63 647.96 352.51 C 648.68 350.56 650.16 349.84 652.42 350.36 C 652.56 351.43 652.72 352.51 652.90 353.58 C 653.80 353.08 654.73 352.62 655.67 352.18 C 653.93 350.73 651.76 349.30 649.38 349.69 C 648.60 350.57 647.89 351.52 647.18 352.47 C 645.80 350.86 644.08 349.53 641.91 349.39 M 656.13 355.04 C 657.04 355.33 657.96 355.62 658.89 355.92 C 658.62 354.69 658.37 353.47 658.11 352.24 C 657.49 353.20 656.81 354.12 656.13 355.04 M 641.15 355.99 C 641.15 357.25 641.18 358.52 641.23 359.79 C 644.71 360.15 648.28 360.40 651.75 359.80 C 653.25 359.00 653.13 356.83 651.86 355.88 C 648.32 355.35 644.69 355.52 641.15 355.99 M 638.23 362.07 C 638.41 365.41 641.16 360.48 638.23 362.07 M 635.21 364.28 C 635.76 364.83 635.76 364.83 635.21 364.28 M 641.15 368.97 C 641.12 370.22 641.13 371.47 641.18 372.72 C 645.42 373.40 649.74 373.23 653.99 372.73 C 654.30 371.49 654.36 370.24 654.17 368.98 C 649.87 368.36 645.44 368.28 641.15 368.97 M 657.41 370.17 C 656.98 371.55 657.47 372.05 658.87 371.67 C 659.28 370.27 658.80 369.77 657.41 370.17 M 659.94 371.34 C 658.36 374.30 663.29 371.46 659.94 371.34 M 656.42 372.28 C 655.00 372.95 654.91 373.59 656.15 374.20 C 657.61 373.44 657.70 372.79 656.42 372.28 M 653.19 375.12 C 651.65 378.15 656.51 375.25 653.19 375.12 Z" />
<path fill="#ffffff" opacity="1.00" d=" M 692.83 346.98 C 697.25 346.22 697.64 351.05 698.87 354.06 C 701.77 363.16 705.59 371.98 708.07 381.22 C 705.36 381.51 702.63 381.51 699.92 381.44 C 699.13 379.91 698.40 378.35 697.71 376.79 C 693.87 376.43 690.01 376.42 686.17 376.74 C 685.44 378.25 684.72 379.77 683.99 381.29 C 681.25 381.53 678.49 381.57 675.77 381.25 C 678.27 371.72 682.24 362.65 685.27 353.29 C 686.19 351.25 686.36 348.55 688.42 347.26 C 689.03 347.76 689.66 348.28 690.30 348.79 C 688.54 349.95 687.19 351.55 686.82 353.68 C 688.30 354.14 689.81 354.60 691.31 355.05 C 692.01 352.40 692.60 349.71 692.83 346.98 M 694.24 351.13 C 694.37 354.48 697.22 349.58 694.24 351.13 M 693.96 355.10 C 695.19 356.64 696.67 357.97 698.25 359.18 C 697.51 357.22 695.58 356.22 693.96 355.10 M 697.18 355.24 C 697.73 355.80 697.73 355.80 697.18 355.24 M 695.25 360.24 C 695.89 360.88 695.89 360.88 695.25 360.24 M 689.69 368.03 C 691.21 368.07 692.75 368.08 694.30 368.06 C 694.12 365.64 693.35 363.30 692.05 361.26 C 690.59 363.22 689.53 365.54 689.69 368.03 M 700.20 364.09 C 698.85 364.79 698.82 365.47 700.10 366.13 C 701.44 365.44 701.47 364.76 700.20 364.09 M 691.13 370.67 C 690.00 371.64 690.80 374.07 692.46 373.54 C 694.79 373.20 692.77 369.61 691.13 370.67 Z" />
<path fill="#ffffff" opacity="1.00" d=" M 740.67 347.67 C 744.00 346.68 747.63 347.28 751.08 347.43 C 750.64 348.48 750.19 349.55 749.39 350.38 C 745.67 354.57 741.82 358.65 738.29 363.00 C 742.21 369.45 748.14 374.55 751.57 381.28 C 748.41 381.47 745.23 381.73 742.09 381.36 C 738.23 378.02 736.02 373.12 731.97 369.95 C 731.26 373.57 731.61 377.27 731.49 380.94 C 728.83 381.87 725.98 381.59 723.27 381.15 C 722.99 370.02 722.92 358.87 723.23 347.74 C 725.86 346.84 728.66 347.13 731.36 347.54 C 731.62 350.25 731.46 352.98 731.62 355.70 C 731.93 355.78 732.57 355.92 732.88 355.99 C 735.69 353.42 737.77 350.14 740.67 347.67 M 742.55 349.62 C 738.90 351.19 737.12 354.99 734.08 357.35 C 735.78 357.58 737.48 357.92 739.17 358.31 C 739.14 357.31 738.92 356.33 738.37 355.49 C 738.88 354.86 739.41 354.24 739.94 353.62 C 740.68 354.38 741.43 355.13 742.18 355.89 C 743.79 354.13 745.52 352.37 746.27 350.04 C 745.05 349.64 743.76 348.67 742.55 349.62 M 741.26 372.18 C 739.25 372.64 740.63 375.29 742.28 374.71 C 744.18 374.29 742.87 371.48 741.26 372.18 Z" />
<path fill="#ffffff" opacity="1.00" d=" M 766.41 347.38 C 774.45 347.08 782.55 346.99 790.60 347.43 C 791.05 350.02 790.88 352.65 790.81 355.27 C 785.79 356.08 780.68 355.16 775.65 355.77 C 773.81 356.46 774.73 358.62 774.94 360.01 C 779.50 360.30 784.09 359.86 788.65 360.35 C 789.12 362.94 789.04 365.59 788.82 368.21 C 784.30 368.88 779.73 368.37 775.19 368.57 C 774.46 369.91 774.55 371.44 774.77 372.91 C 780.05 373.44 785.37 372.78 790.66 373.34 C 790.90 375.94 790.88 378.55 790.82 381.17 C 786.57 381.79 782.27 381.44 778.00 381.49 C 774.06 381.37 770.07 381.88 766.17 381.07 C 766.15 369.85 765.67 358.57 766.41 347.38 M 775.13 349.32 C 773.60 352.31 778.48 349.45 775.13 349.32 M 776.84 349.41 C 777.48 350.39 778.14 351.37 778.76 352.38 C 779.79 352.36 780.83 352.34 781.89 352.33 C 780.23 351.30 778.51 350.39 776.84 349.41 M 784.06 348.70 C 783.56 350.14 783.05 351.58 782.67 353.06 C 784.24 355.32 786.66 352.95 788.63 352.51 C 788.69 351.35 788.72 350.19 788.74 349.04 C 788.52 349.78 788.08 351.27 787.86 352.01 C 786.82 350.65 785.59 349.46 784.06 348.70 M 769.15 349.77 C 770.56 351.20 772.21 352.57 772.49 354.70 C 772.63 354.35 772.92 353.66 773.07 353.31 C 774.09 353.42 775.12 353.54 776.16 353.66 C 773.76 352.47 771.47 351.09 769.15 349.77 M 783.22 363.41 C 783.78 363.96 783.78 363.96 783.22 363.41 M 779.13 375.18 C 777.60 378.21 782.45 375.30 779.13 375.18 Z" />
<path fill="#ffffff" opacity="1.00" d=" M 807.08 350.94 C 807.07 349.51 807.01 346.97 809.14 347.21 C 814.99 347.10 820.85 347.10 826.70 347.29 C 832.88 347.75 837.25 354.62 835.64 360.48 C 835.00 363.67 832.36 365.81 830.22 368.02 C 831.80 372.53 834.51 376.55 835.84 381.16 C 832.92 381.41 829.78 382.08 826.97 381.03 C 824.57 377.18 823.37 372.67 820.77 368.95 C 819.23 368.28 817.51 368.68 815.91 368.67 C 815.25 372.85 815.72 377.09 815.34 381.30 C 812.65 381.57 809.92 381.67 807.28 381.10 C 806.82 371.06 807.23 360.99 807.08 350.94 M 813.21 349.32 C 812.44 350.28 811.66 351.23 810.88 352.18 C 814.45 352.27 817.97 354.60 821.50 353.26 C 819.01 351.47 816.47 349.20 813.21 349.32 M 820.11 349.25 C 818.56 352.23 823.48 349.41 820.11 349.25 M 821.83 349.38 C 822.44 350.55 823.05 351.73 823.65 352.92 C 824.49 352.26 825.34 351.61 826.21 350.97 C 824.62 350.80 823.09 350.37 821.83 349.38 M 828.98 350.00 C 828.26 351.64 827.57 353.28 826.90 354.94 C 828.16 355.53 829.44 356.11 830.74 356.68 C 831.08 354.91 831.39 353.14 831.69 351.37 C 830.78 350.91 829.88 350.45 828.98 350.00 M 816.61 355.74 C 814.99 356.50 815.81 358.52 815.80 359.87 C 819.50 360.10 823.25 360.35 826.93 359.74 C 827.48 358.32 827.52 355.84 825.50 355.70 C 822.54 355.50 819.55 355.42 816.61 355.74 M 812.19 355.90 C 810.55 356.34 811.32 359.01 812.96 358.29 C 814.57 357.86 813.77 355.20 812.19 355.90 M 827.92 360.48 C 829.85 361.88 832.29 361.69 834.43 360.87 C 832.26 360.76 830.09 360.62 827.92 360.48 M 825.46 365.86 C 826.04 365.95 826.63 366.05 827.22 366.16 C 827.45 365.85 827.89 365.23 828.11 364.92 C 828.62 365.02 829.65 365.23 830.16 365.33 C 829.57 364.63 829.01 363.92 828.47 363.19 C 827.41 364.03 826.84 365.48 825.46 365.86 M 828.44 367.93 C 828.55 369.26 828.68 370.61 828.83 371.95 C 827.77 372.55 826.78 373.25 825.89 374.06 C 827.10 373.48 828.34 372.84 829.31 371.86 C 829.10 370.53 828.77 369.22 828.44 367.93 Z" />
<path fill="#ffffff" opacity="1.00" d=" M 848.13 347.42 C 850.99 347.06 853.89 347.11 856.78 347.25 C 859.70 351.42 861.53 356.23 864.12 360.61 C 868.14 357.17 868.99 351.41 872.22 347.30 C 875.10 347.18 878.01 347.08 880.89 347.41 C 878.20 354.74 873.92 361.40 870.50 368.42 C 867.90 372.17 869.03 376.85 868.70 381.11 C 865.97 381.69 863.10 381.76 860.41 381.03 C 859.92 377.02 861.19 372.59 858.86 369.00 C 855.28 361.82 851.12 354.88 848.13 347.42 M 873.87 349.38 C 872.97 350.70 875.42 352.13 876.38 351.03 C 877.19 349.64 874.86 348.49 873.87 349.38 M 875.20 352.24 C 875.76 352.80 875.76 352.80 875.20 352.24 Z" />
</g>
<g id="#b0b0b03f">
<path fill="#b0b0b0" opacity="0.25" d=" M 687.92 346.86 C 689.55 346.92 691.18 346.96 692.83 346.98 C 692.60 349.71 692.01 352.40 691.31 355.05 C 689.81 354.60 688.30 354.14 686.82 353.68 C 687.19 351.55 688.54 349.95 690.30 348.79 C 689.66 348.28 689.03 347.76 688.42 347.26 L 687.92 346.86 Z" />
<path fill="#b0b0b0" opacity="0.25" d=" M 742.55 349.62 C 743.76 348.67 745.05 349.64 746.27 350.04 C 745.52 352.37 743.79 354.13 742.18 355.89 C 741.43 355.13 740.68 354.38 739.94 353.62 C 739.41 354.24 738.88 354.86 738.37 355.49 C 738.92 356.33 739.14 357.31 739.17 358.31 C 737.48 357.92 735.78 357.58 734.08 357.35 C 737.12 354.99 738.90 351.19 742.55 349.62 Z" />
<path fill="#b0b0b0" opacity="0.25" d=" M 775.13 349.32 C 778.48 349.45 773.60 352.31 775.13 349.32 Z" />
<path fill="#b0b0b0" opacity="0.25" d=" M 784.06 348.70 C 785.59 349.46 786.82 350.65 787.86 352.01 C 788.08 351.27 788.52 349.78 788.74 349.04 C 788.72 350.19 788.69 351.35 788.63 352.51 C 786.66 352.95 784.24 355.32 782.67 353.06 C 783.05 351.58 783.56 350.14 784.06 348.70 Z" />
<path fill="#b0b0b0" opacity="0.25" d=" M 813.21 349.32 C 816.47 349.20 819.01 351.47 821.50 353.26 C 817.97 354.60 814.45 352.27 810.88 352.18 C 811.66 351.23 812.44 350.28 813.21 349.32 Z" />
<path fill="#b0b0b0" opacity="0.25" d=" M 820.11 349.25 C 823.48 349.41 818.56 352.23 820.11 349.25 Z" />
<path fill="#b0b0b0" opacity="0.25" d=" M 828.98 350.00 C 829.88 350.45 830.78 350.91 831.69 351.37 C 831.39 353.14 831.08 354.91 830.74 356.68 C 829.44 356.11 828.16 355.53 826.90 354.94 C 827.57 353.28 828.26 351.64 828.98 350.00 Z" />
<path fill="#b0b0b0" opacity="0.25" d=" M 694.24 351.13 C 697.22 349.58 694.37 354.48 694.24 351.13 Z" />
<path fill="#b0b0b0" opacity="0.25" d=" M 875.20 352.24 C 875.76 352.80 875.76 352.80 875.20 352.24 Z" />
<path fill="#b0b0b0" opacity="0.25" d=" M 697.18 355.24 C 697.73 355.80 697.73 355.80 697.18 355.24 Z" />
<path fill="#b0b0b0" opacity="0.25" d=" M 812.19 355.90 C 813.77 355.20 814.57 357.86 812.96 358.29 C 811.32 359.01 810.55 356.34 812.19 355.90 Z" />
<path fill="#b0b0b0" opacity="0.25" d=" M 638.23 362.07 C 641.16 360.48 638.41 365.41 638.23 362.07 Z" />
<path fill="#b0b0b0" opacity="0.25" d=" M 783.22 363.41 C 783.78 363.96 783.78 363.96 783.22 363.41 Z" />
<path fill="#b0b0b0" opacity="0.25" d=" M 635.21 364.28 C 635.76 364.83 635.76 364.83 635.21 364.28 Z" />
<path fill="#b0b0b0" opacity="0.25" d=" M 700.20 364.09 C 701.47 364.76 701.44 365.44 700.10 366.13 C 698.82 365.47 698.85 364.79 700.20 364.09 Z" />
<path fill="#b0b0b0" opacity="0.25" d=" M 657.41 370.17 C 658.80 369.77 659.28 370.27 658.87 371.67 C 657.47 372.05 656.98 371.55 657.41 370.17 Z" />
<path fill="#b0b0b0" opacity="0.25" d=" M 659.94 371.34 C 663.29 371.46 658.36 374.30 659.94 371.34 Z" />
<path fill="#b0b0b0" opacity="0.25" d=" M 741.26 372.18 C 742.87 371.48 744.18 374.29 742.28 374.71 C 740.63 375.29 739.25 372.64 741.26 372.18 Z" />
<path fill="#b0b0b0" opacity="0.25" d=" M 653.19 375.12 C 656.51 375.25 651.65 378.15 653.19 375.12 Z" />
<path fill="#b0b0b0" opacity="0.25" d=" M 779.13 375.18 C 782.45 375.30 777.60 378.21 779.13 375.18 Z" />
</g>
</svg>
